<?xml version="1.0" standalone="no"?>
<!DOCTYPE svg PUBLIC "-//W3C//DTD SVG 20010904//EN"
 "http://www.w3.org/TR/2001/REC-SVG-20010904/DTD/svg10.dtd">
<svg version="1.0" xmlns="http://www.w3.org/2000/svg"
 width="300.000000pt" height="144.000000pt" viewBox="0 0 300.000000 144.000000"
 preserveAspectRatio="xMidYMid meet">
<metadata>
Created by potrace 1.10, written by Peter Selinger 2001-2011
</metadata>
<g transform="translate(0.000000,144.000000) scale(0.100000,-0.100000)"
fill="#000000" stroke="none">
<path d="M2205 720 c0 -399 1 -562 2 -363 2 200 2 526 0 725 -1 200 -2 37 -2
-362z"/>
<path d="M150 1413 c0 -8 24 -12 80 -12 55 0 80 4 80 12 0 8 -25 12 -80 12
-56 0 -80 -4 -80 -12z"/>
<path d="M2350 1420 c0 -5 14 -10 30 -10 17 0 30 5 30 10 0 6 -13 10 -30 10
-16 0 -30 -4 -30 -10z"/>
<path d="M2470 1422 c0 -4 16 -9 35 -10 19 -2 35 1 35 6 0 4 -16 9 -35 10 -19
2 -35 -1 -35 -6z"/>
<path d="M2550 1420 c0 -5 16 -10 35 -10 19 0 35 5 35 10 0 6 -16 10 -35 10
-19 0 -35 -4 -35 -10z"/>
<path d="M2660 1418 c0 -5 50 -8 110 -7 61 1 110 5 110 9 0 5 -49 8 -110 8
-60 0 -110 -5 -110 -10z"/>
<path d="M320 1410 c0 -7 29 -10 75 -9 41 1 72 6 69 10 -8 13 -144 11 -144 -1z"/>
<path d="M2414 1388 c-3 -4 22 -8 55 -8 34 0 61 4 61 9 0 11 -109 10 -116 -1z"/>
<path d="M2580 1388 c0 -4 14 -8 32 -8 17 0 29 -3 25 -6 -3 -4 -33 -6 -67 -6
-33 0 -60 -4 -60 -9 0 -5 37 -9 81 -9 75 0 80 1 68 16 -13 15 -11 17 19 12 21
-3 32 0 32 7 0 8 -21 12 -65 12 -36 -1 -65 -5 -65 -9z"/>
<path d="M2726 1389 c7 -12 194 -11 194 0 0 5 -45 9 -100 8 -54 0 -97 -4 -94
-8z"/>
<path d="M2380 1358 c0 -4 23 -8 50 -8 28 0 50 5 50 10 0 7 -20 10 -50 9 -27
-2 -50 -6 -50 -11z"/>
<path d="M2300 1300 c0 -25 4 -30 25 -30 21 0 25 5 25 30 0 25 -4 30 -25 30
-21 0 -25 -5 -25 -30z"/>
<path d="M2458 1318 c-3 -7 -22 -11 -46 -10 -23 1 -42 -2 -42 -7 0 -14 16 -17
61 -13 30 3 39 8 39 23 0 21 -6 25 -12 7z"/>
<path d="M140 1294 c0 -8 27 -12 81 -12 104 -1 101 19 -4 21 -52 1 -77 -2 -77
-9z"/>
<path d="M310 1296 c0 -19 25 -27 39 -13 14 14 14 27 0 27 -5 0 -7 -6 -3 -12
6 -10 4 -10 -7 0 -17 16 -29 15 -29 -2z"/>
<path d="M2522 1265 c6 -7 329 -8 336 -1 3 3 -73 6 -168 6 -95 0 -171 -2 -168
-5z"/>
<path d="M2305 1240 c-8 -14 3 -30 21 -30 8 0 14 9 14 20 0 21 -24 28 -35 10z"/>
<path d="M2376 1234 c-9 -22 -2 -27 24 -19 12 4 19 12 17 18 -6 19 -34 20 -41
1z"/>
<path d="M2450 1231 c0 -15 6 -21 21 -21 25 0 22 33 -4 38 -12 2 -17 -3 -17
-17z"/>
<path d="M2877 1244 c-16 -16 -6 -35 16 -32 12 2 22 10 22 18 0 16 -26 25 -38
14z"/>
<path d="M2274 1130 c0 -52 1 -74 3 -47 2 26 2 68 0 95 -2 26 -3 4 -3 -48z"/>
<path d="M173 1186 c-10 -11 -9 -15 2 -20 7 -2 16 0 19 7 3 9 5 9 5 0 1 -15
31 -18 31 -3 0 8 -32 31 -42 30 -2 -1 -8 -7 -15 -14z"/>
<path d="M2546 1188 c7 -12 72 -10 79 3 5 6 -9 9 -39 8 -24 -2 -43 -6 -40 -11z"/>
<path d="M2740 1192 c0 -4 20 -8 45 -9 25 -1 45 2 45 7 0 6 -20 10 -45 10 -25
0 -45 -3 -45 -8z"/>
<path d="M285 1180 c-9 -15 3 -29 23 -25 9 2 39 4 65 4 32 1 46 5 42 12 -4 6
-28 9 -54 8 -26 -1 -52 1 -58 4 -7 4 -14 3 -18 -3z"/>
<path d="M2830 1128 c0 -5 6 -8 13 -9 6 0 22 -2 34 -3 12 -1 28 1 34 5 6 4 -9
8 -35 10 -25 2 -46 1 -46 -3z"/>
<path d="M2980 1075 c0 -19 5 -35 10 -35 6 0 10 16 10 35 0 19 -4 35 -10 35
-5 0 -10 -16 -10 -35z"/>
<path d="M2765 1090 c-4 -6 7 -10 24 -10 17 0 31 5 31 10 0 6 -11 10 -24 10
-14 0 -28 -4 -31 -10z"/>
<path d="M170 1045 c-10 -12 -7 -15 15 -21 32 -8 58 11 35 26 -21 14 -36 12
-50 -5z"/>
<path d="M280 1035 c0 -12 14 -15 70 -15 43 0 70 4 70 11 0 6 -21 9 -55 8 -30
-1 -58 0 -62 4 -11 12 -23 8 -23 -8z"/>
<path d="M2525 1020 c-4 -6 7 -10 24 -10 17 0 31 5 31 10 0 6 -11 10 -24 10
-14 0 -28 -4 -31 -10z"/>
<path d="M2600 1019 c0 -5 16 -9 35 -9 19 0 35 4 35 8 0 4 -16 8 -35 9 -19 0
-35 -3 -35 -8z"/>
<path d="M2680 1021 c0 -4 23 -8 50 -8 28 -1 50 1 50 6 0 4 -22 8 -50 8 -27 1
-50 -2 -50 -6z"/>
<path d="M2790 1020 c0 -14 106 -18 119 -5 11 12 -10 17 -24 5 -10 -8 -19 -9
-27 -3 -18 13 -68 15 -68 3z"/>
<path d="M2274 885 c0 -49 1 -71 3 -48 2 23 2 64 0 90 -2 26 -3 8 -3 -42z"/>
<path d="M174 909 c-3 -6 -1 -16 5 -22 8 -8 11 -7 11 2 0 10 3 11 14 2 11 -9
16 -9 21 0 8 12 -11 29 -32 29 -6 0 -15 -5 -19 -11z"/>
<path d="M280 895 c0 -12 14 -15 70 -15 39 0 70 4 70 9 0 13 -46 18 -92 10
-21 -3 -35 -2 -32 2 3 5 0 9 -5 9 -6 0 -11 -7 -11 -15z"/>
<path d="M2526 881 c9 -9 58 -9 74 0 10 6 -1 8 -32 7 -26 -1 -45 -4 -42 -7z"/>
<path d="M2570 848 c0 -5 16 -8 35 -8 19 0 35 4 35 10 0 5 -16 9 -35 7 -19 -1
-35 -5 -35 -9z"/>
<path d="M2480 820 c-24 -6 -24 -7 5 -11 17 -3 41 -2 55 1 24 6 24 7 -5 11
-17 3 -41 2 -55 -1z"/>
<path d="M171 771 c-10 -6 -10 -10 -1 -16 7 -4 16 -1 21 6 6 10 9 11 9 2 0 -7
7 -13 16 -13 22 0 12 24 -12 28 -10 1 -25 -2 -33 -7z"/>
<path d="M2445 771 c-3 -3 -31 -4 -62 -3 -31 1 -53 -1 -49 -5 4 -5 55 -8 113
-9 58 -1 99 3 91 7 -19 11 -86 18 -93 10z"/>
<path d="M2560 763 c0 -8 14 -13 35 -13 22 0 35 5 35 13 0 9 -12 13 -35 13
-21 -1 -35 -6 -35 -13z"/>
<path d="M2666 773 c-17 -17 5 -21 136 -22 127 -2 141 0 123 13 -15 11 -22 11
-27 3 -6 -9 -8 -8 -8 2 0 9 -4 10 -12 4 -13 -10 -89 -9 -135 1 -13 3 -25 1
-28 -5 -4 -5 -13 -5 -24 1 -10 5 -21 6 -25 3z"/>
<path d="M280 754 c0 -9 20 -12 78 -11 102 3 101 21 0 23 -58 1 -78 -2 -78
-12z"/>
<path d="M2257 463 c1 -148 2 -312 3 -365 0 -59 4 -98 10 -98 6 0 10 128 10
365 0 285 -3 365 -12 365 -10 0 -13 -59 -11 -267z"/>
<path d="M2310 700 c0 -5 18 -10 41 -10 24 0 38 4 34 10 -3 6 -22 10 -41 10
-19 0 -34 -4 -34 -10z"/>
<path d="M2430 700 c0 -6 29 -10 65 -10 36 0 65 4 65 9 0 5 -29 9 -65 10 -36
0 -65 -4 -65 -9z"/>
<path d="M2600 698 c0 -4 20 -8 45 -8 25 0 45 5 45 10 0 7 -19 10 -45 9 -25
-2 -45 -6 -45 -11z"/>
<path d="M173 636 c-10 -11 -9 -15 2 -20 7 -2 16 0 19 7 3 9 5 9 5 0 1 -15 31
-18 31 -3 0 8 -32 31 -42 30 -2 -1 -8 -7 -15 -14z"/>
<path d="M2842 633 c5 -25 28 -28 28 -4 0 12 -6 21 -16 21 -9 0 -14 -7 -12
-17z"/>
<path d="M285 630 c-3 -5 -4 -14 -1 -18 6 -9 120 -7 136 3 5 3 10 1 10 -5 0
-6 4 -9 10 -5 5 3 7 12 4 20 -4 8 -11 12 -16 9 -13 -8 -113 -8 -126 0 -6 3
-13 2 -17 -4z"/>
<path d="M2300 630 c0 -14 41 -23 53 -11 8 8 7 11 -3 12 -8 0 -23 2 -32 4 -10
2 -18 -1 -18 -5z"/>
<path d="M2900 625 c0 -8 9 -15 20 -15 11 0 20 7 20 15 0 8 -9 15 -20 15 -11
0 -20 -7 -20 -15z"/>
<path d="M2980 560 c0 -40 4 -70 10 -70 6 0 10 30 10 70 0 40 -4 70 -10 70 -6
0 -10 -30 -10 -70z"/>
<path d="M2419 570 c-17 -11 22 -18 51 -9 14 4 21 8 15 9 -33 6 -56 6 -66 0z"/>
<path d="M170 495 c-10 -12 -7 -15 15 -21 32 -8 58 11 35 26 -21 14 -36 12
-50 -5z"/>
<path d="M280 485 c0 -12 16 -15 85 -15 64 0 83 3 79 13 -3 9 -22 11 -70 7
-36 -3 -68 -2 -70 2 -9 13 -24 9 -24 -7z"/>
<path d="M2325 479 c-16 -4 -28 -8 -25 -9 14 -5 80 -5 80 1 0 12 -24 15 -55 8z"/>
<path d="M2643 483 c-7 -3 -13 -9 -13 -14 0 -5 74 -9 170 -9 94 0 170 4 170 8
0 4 -21 8 -47 9 -27 1 -67 3 -91 5 -23 2 -42 0 -42 -4 0 -5 -5 -8 -11 -8 -5 0
-7 5 -3 12 5 7 3 8 -5 3 -15 -8 -93 -11 -107 -3 -5 3 -15 3 -21 1z"/>
<path d="M2395 470 c8 -13 35 -13 55 0 11 7 5 10 -23 10 -23 0 -36 -4 -32 -10z"/>
<path d="M2330 418 c0 -10 5 -18 11 -18 5 0 8 3 6 8 -8 11 57 9 65 -3 4 -5 8
-1 8 10 0 17 -7 20 -45 20 -36 0 -45 -3 -45 -17z"/>
<path d="M2460 427 c0 -9 12 -13 35 -13 37 1 46 10 19 20 -27 10 -54 7 -54 -7z"/>
<path d="M174 359 c-3 -6 -1 -16 5 -22 8 -8 11 -7 11 2 0 10 3 11 14 2 11 -9
16 -9 21 0 8 12 -11 29 -32 29 -6 0 -15 -5 -19 -11z"/>
<path d="M280 345 c0 -12 14 -15 70 -15 39 0 70 4 70 9 0 13 -46 18 -92 10
-21 -3 -35 -2 -32 2 3 5 0 9 -5 9 -6 0 -11 -7 -11 -15z"/>
<path d="M2634 351 c-17 -17 16 -21 166 -21 144 0 170 2 170 15 0 8 -5 15 -11
15 -5 0 -7 -4 -4 -10 8 -13 -1 -13 -26 0 -11 7 -19 7 -19 1 0 -5 -8 -8 -17 -6
-10 2 -18 4 -18 6 0 1 -33 3 -72 4 -40 1 -73 -2 -73 -7 0 -5 -9 -4 -19 2 -19
9 -67 10 -77 1z"/>
<path d="M2330 301 c0 -5 20 -9 45 -9 25 0 45 3 45 7 0 4 -20 8 -45 10 -25 1
-45 -2 -45 -8z"/>
<path d="M2331 251 c1 -17 3 -20 6 -8 3 13 15 17 55 17 65 0 58 9 -10 13 -50
3 -52 3 -51 -22z"/>
<path d="M2390 200 c0 -5 20 -8 45 -7 58 3 59 17 0 17 -25 0 -45 -4 -45 -10z"/>
<path d="M2510 201 c0 -4 18 -8 40 -8 22 0 43 4 46 8 3 5 -15 9 -40 9 -25 0
-46 -4 -46 -9z"/>
<path d="M2620 200 c0 -5 14 -10 30 -10 17 0 30 5 30 10 0 6 -13 10 -30 10
-16 0 -30 -4 -30 -10z"/>
<path d="M1164 176 c-3 -7 -4 -42 -2 -77 l3 -64 360 -3 c330 -2 361 -1 373 15
15 22 16 115 0 131 -19 19 -727 17 -734 -2z m708 -29 c12 -19 9 -64 -6 -76 -9
-8 -108 -11 -342 -9 l-329 3 -3 47 -3 48 178 2 c292 5 496 -1 505 -15z"/>
<path d="M1460 116 c0 -11 17 -14 70 -15 39 0 70 3 70 8 0 13 -70 19 -103 10
-16 -5 -25 -4 -22 2 4 5 1 9 -4 9 -6 0 -11 -6 -11 -14z"/>
<path d="M2763 133 c-44 -6 -42 -24 2 -20 20 1 35 7 35 15 0 6 -1 11 -2 10 -2
0 -18 -3 -35 -5z"/>
<path d="M2830 132 c-37 -13 43 -20 133 -13 4 1 7 4 7 9 0 7 -120 10 -140 4z"/>
<path d="M630 114 c0 -9 12 -14 36 -14 45 0 41 22 -4 25 -22 2 -32 -2 -32 -11z"/>
<path d="M750 114 c0 -9 12 -14 35 -14 35 0 51 19 18 21 -10 0 -26 2 -35 4
-10 2 -18 -3 -18 -11z"/>
<path d="M2334 78 c-5 -8 7 -10 74 -10 32 -1 59 11 31 13 -63 5 -101 4 -105
-3z"/>
<path d="M2470 79 c0 -4 20 -9 45 -11 25 -2 45 0 45 4 0 9 -3 10 -52 12 -21 1
-38 -1 -38 -5z"/>
<path d="M350 38 c0 -5 169 -8 375 -8 206 0 375 3 375 8 0 4 -169 7 -375 7
-206 0 -375 -3 -375 -7z"/>
</g>
</svg>
